<mxfile host="app.diagrams.net" modified="2024-05-27T06:49:13.438Z" agent="Mozilla/5.0 (Windows NT 10.0; Win64; x64) AppleWebKit/537.36 (KHTML, like Gecko) Chrome/125.0.0.0 Safari/537.36" version="24.4.8" etag="-uF1-02d2RE4JPUdPEj0" type="github">
  <diagram name="第 1 页" id="8xVRIpOBHcb_aeBJjtwD">
    <mxGraphModel>
      <root>
        <mxCell id="0" />
        <mxCell id="1" parent="0" />
      </root>
    </mxGraphModel>
  </diagram>
</mxfile>
